<svg width="578" height="159" viewBox="0 0 578 159" fill="none" xmlns="http://www.w3.org/2000/svg">
<g clip-path="url(#clip0_513_17876)">
<path d="M156.4 129.9L178.9 57.7H213.3L181.6 156H132.4L106.6 85.7L80.8 156H31.7L0 57.7H34.4L56.9 129.9L84.1 57.7H129.2L156.4 129.9Z" fill="black"/>
<path d="M223.9 78.2C229.2 70.4 236.5 64.6 245.7 60.7C255 56.8 265.6 54.9 277.7 54.9C288.8 54.9 298.7 56.5 307.3 59.8C315.9 63.1 322.7 67.7 327.6 73.5C332.6 79.4 335.3 86.1 335.7 93.6H299.4C298.6 91 296.4 88.6 293 86.6C289.5 84.6 284.5 83.5 278 83.5C269 83.5 262.3 85.7 258 90.1C253.7 94.5 251.5 100.4 251.5 108C251.5 115.9 253.8 122 258.3 126.3C262.9 130.6 270.8 132.7 282.2 132.7C287.4 132.7 292 132.3 296.1 131.4C300.2 130.5 304.3 129.2 308.4 127.5V121.6H277.8V101.1H335.7V144.9C326.3 150.1 317.3 153.7 308.5 155.6C299.8 157.6 290.3 158.5 280.1 158.5C267.3 158.5 256 156.5 246.4 152.6C236.7 148.7 229.3 142.8 223.9 135.1C218.6 127.3 215.9 117.8 215.9 106.5C216 95.5 218.7 86 223.9 78.2Z" fill="black"/>
<path d="M350.8 57.7H384.9V156H350.8V57.7Z" fill="black"/>
<path d="M538.7 156H502.4L494.3 138.8H440.2L432.1 156H395.8L443 57.7H491.6L538.7 156ZM467.3 81.1L451.7 114.1H482.8L467.3 81.1Z" fill="black"/>
<path d="M508.5 2C510.3 1.8 512.3 2 513.9 1.4C518.1 -0.2 522.4 0.6 527 0C526.5 2 526.2 3.1 525.9 4.4C528.8 5.8 531.9 7.4 535 8.7C535.4 8.9 536.6 8.2 536.8 7.7C537.6 5.7 538.6 5.7 540.6 6.1C543.8 6.9 547.2 7 550.5 7.4C551.6 7.6 553.1 7.5 553.8 8.2C554.4 8.9 555.5 10.6 553.3 11.3C553.6 12 553.7 12.7 554.1 13.3C556 16.3 558.2 19 559.3 22.5C560.1 24.9 562.6 26.6 564.4 28.7C565.5 29.9 567.7 30.2 567.5 32.7C567.5 32.9 569.7 33.8 570.7 33.7C572.9 33.3 575 32.4 577.5 31.6C577.5 32.6 577.7 33.5 577.5 34.2C575.8 38.8 573.9 43.2 570 46.6C567.7 48.6 566 51.2 564 53.5C561.7 56.1 563.3 58.8 563.6 61.4C563.9 63.9 564.1 66.4 564.1 68.9C564.1 69.5 563.2 70.3 562.5 70.8C561.5 71.5 560.4 72 559.4 72.6C557.3 73.9 555.6 75.2 556.8 78.1C557.4 79.7 556.4 80.7 555 81.6C554.1 82.1 553.5 83.2 553 84.2C551 88 548.7 91.5 544.4 92.8C542.2 93.5 539.9 93.5 537.6 93.7C536.1 93.8 535.4 93.1 535.2 91.3C535 89.6 533.8 88 533.1 86.3C532.3 84.4 531.6 82.5 530.9 80.7C530.3 79.2 530 77.6 529.1 76.2C526.8 72.6 526.3 69.1 528.9 65.4C529.4 64.7 529.1 63.3 529 62.3C528.7 58.6 527.2 55.3 524.6 52.7C522.5 50.7 523.6 48.6 523.9 46.5C524.4 43.5 523.9 42.9 520.8 42.9C520.1 42.9 519 42.8 518.7 42.4C517 39.6 514.7 40.7 512.3 41.1C508.7 41.7 505 43 501.6 42.4C499 41.9 496.7 39 494.5 37C493.4 36 493 34.3 492 33.2C490.2 31.1 490.2 29 491 26.4C491.6 24.3 491.5 22 492 19.9C492.3 18.5 492.8 16.9 493.8 15.8C495.7 13.5 497.2 10.6 500.5 9.8C500.9 9.7 501.5 9.2 501.6 8.8C502.5 5.2 505.8 3.6 508.5 2Z" fill="#B92424"/>
</g>
<defs>
<clipPath id="clip0_513_17876">
<rect width="577.6" height="158.7" fill="white"/>
</clipPath>
</defs>
</svg>
